{"title":"The.Bible.-.Jesus.Of.Nazareth.[1977].DvdRip.XviD-KnÃƒÂ£","uid":6415253,"size":4286265344,"categoryP":"video","categoryS":"movies","magnet":"?xt=urn:btih:eed79f1302983d026804a562faa60940e21b9382&amp;dn=The.Bible.-.Jesus.Of.Nazareth.%5B1977%5D.DvdRip.XviD-Kn%C3%83%C2%A3&amp;tr=udp%3A%2F%2Ftracker.openbittorrent.com%3A80&amp;tr=udp%3A%2F%2Fopen.demonii.com%3A1337&amp;tr=udp%3A%2F%2Ftracker.coppersurfer.tk%3A6969&amp;tr=udp%3A%2F%2Fexodus.desync.com%3A6969","seeders":1,"leechers":0,"uploader":"Jon.Pson","files":2,"time":1306148236,"description":"A reverent depiction of the life of Christ using the Gospel accounts. \n\n\nGeneral\nComplete name                    : H:\\Movies\\The.Bible.-.Jesus.Of.Nazareth.[1977].DvdRip.XviD-KnÃƒÂ£\\The.Bible.-.Jesus.Of.Nazareth.[1977].DvdRip.XviD-KnÃƒÂ£.CD1.avi\nFormat                           : AVI\nFormat/Info                      : Audio Video Interleave\nFormat profile                   : OpenDML\nFile size                        : 2.00 GiB\nDuration                         : 3h 7mn\nOverall bit rate                 : 1 527 Kbps\nWriting application              : VirtualDubMod 1.5.4.1 (build 2178/release)\nWriting library                  : VirtualDubMod build 2178/release\n\nVideo\nID                               : 0\nFormat                           : MPEG-4 Visual\nFormat profile                   : Advanced Simple@L5\nFormat settings, BVOP            : Yes\nFormat settings, QPel            : No\nFormat settings, GMC             : No warppoints\nFormat settings, Matrix          : Custom\nCodec ID                         : XVID\nCodec ID/Hint                    : XviD\nDuration                         : 3h 7mn\nBit rate                         : 1 326 Kbps\nWidth                            : 624 pixels\nHeight                           : 464 pixels\nDisplay aspect ratio             : 4:3\nFrame rate                       : 23.976 fps\nColor space                      : YUV\nChroma subsampling               : 4:2:0\nBit depth                        : 8 bits\nScan type                        : Progressive\nBits/(Pixel*Frame)               : 0.191\nStream size                      : 1.73 GiB (87%)\nWriting library                  : XviD 1.2.1 (UTC 2008-12-04)\n\nAudio\nID                               : 1\nFormat                           : AC-3\nFormat/Info                      : Audio Coding 3\nMode extension                   : CM (complete main)\nCodec ID                         : 2000\nDuration                         : 3h 7mn\nBit rate mode                    : Constant\nBit rate                         : 192 Kbps\nChannel(s)                       : 2 channels\nChannel positions                : Front: L R\nSampling rate                    : 48.0 KHz\nBit depth                        : 16 bits\nStream size                      : 257 MiB (13%)\nAlignment                        : Split accross interleaves\nInterleave, duration             : 96 ms (2.30 video frames)\nInterleave, preload duration     : 96 ms\nLanguage                         : English\n\n","torrent":{"xt":"urn:btih:eed79f1302983d026804a562faa60940e21b9382","amp;dn":"The.Bible.-.Jesus.Of.Nazareth.%5B1977%5D.DvdRip.XviD-Kn%C3%83%C2%A3","amp;tr":["udp%3A%2F%2Ftracker.openbittorrent.com%3A80","udp%3A%2F%2Fopen.demonii.com%3A1337","udp%3A%2F%2Ftracker.coppersurfer.tk%3A6969","udp%3A%2F%2Fexodus.desync.com%3A6969"],"infoHash":"eed79f1302983d026804a562faa60940e21b9382","infoHashBuffer":{"type":"Buffer","data":[238,215,159,19,2,152,61,2,104,4,165,98,250,166,9,64,226,27,147,130]},"announce":[],"urlList":[]}}